<svg xmlns="http://www.w3.org/2000/svg" xmlns:se="http://svg-edit.googlecode.com" xmlns:xlink="http://www.w3.org/1999/xlink" xmlns:dc="http://purl.org/dc/elements/1.1/" xmlns:cc="http://creativecommons.org/ns#" xmlns:rdf="http://www.w3.org/1999/02/22-rdf-syntax-ns#" xmlns:inkscape="http://www.inkscape.org/namespaces/inkscape" width="351" height="64">
                                    <title>my vector image</title>
                                    <!-- Created with Vector Paint - http://www.vectorpaint.yaks.com/ https://chrome.google.com/webstore/detail/hnbpdiengicdefcjecjbnjnoifekhgdo -->
                                    <rect id="backgroundrect" width="100%" height="100%" x="0" y="0" fill="#FFFFFF" stroke="none" class="" style=""/>
                                <g style="" class="currentLayer"><title>Layer 1</title><rect fill="#ffffff" stroke="#222222" stroke-width="0" stroke-linejoin="round" stroke-dashoffset="" fill-rule="nonzero" id="svg_13" x="0.5" y="0.4999999403953552" width="352.4293625487189" height="63.335079193115234" style="color: rgb(255, 145, 0);" class="" fill-opacity="1"/><path fill="none" stroke="#222222" stroke-linejoin="round" stroke-dashoffset="" fill-rule="nonzero" marker-start="" marker-mid="" marker-end="" id="svg_1" d="M2.4230476716895843,24.523825624052837 L26.63158967548084,24.523825624052837 L34.11221543591558,1.5258119556438174 L41.59284544993037,24.523825624052837 L65.80138320014271,24.523825624052837 L46.216297153520976,38.73721703926574 L53.69730998969737,61.735230707673885 L34.11221543591558,47.52145221671988 L14.527125135714757,61.735230707673885 L22.008140098678975,38.73721703926574 L2.4230476716895843,24.523825624052837 z" style="color: rgb(0, 0, 0);" class="" stroke-width="1"/><path fill="none" stroke="#222222" stroke-linejoin="round" stroke-dashoffset="" fill-rule="nonzero" marker-start="" marker-mid="" marker-end="" d="M145.04085130490262,24.733251848284553 L169.24939330869387,24.733251848284553 L176.73001906912862,1.7352381798755374 L184.2106490831434,24.733251848284553 L208.41918683335575,24.733251848284553 L188.834100786734,38.946643263497464 L196.31511362291042,61.9446569319056 L176.73001906912862,47.7308784409516 L157.1449287689278,61.9446569319056 L164.62594373189202,38.946643263497464 L145.04085130490262,24.733251848284553 z" style="color: rgb(0, 0, 0);" class="" stroke-width="1" id="svg_10"/><path fill="none" stroke="#222222" stroke-linejoin="round" stroke-dashoffset="" fill-rule="nonzero" marker-start="" marker-mid="" marker-end="" d="M216.24503667153317,24.733253159586752 L240.45357867532442,24.733253159586752 L247.93420443575917,1.7352394911777225 L255.41483444977393,24.733253159586752 L279.6233721999863,24.733253159586752 L260.03828615336454,38.94664457479965 L267.51929898954097,61.94465824320778 L247.93420443575917,47.730879752253784 L228.34911413555835,61.94465824320778 L235.83012909852258,38.94664457479965 L216.24503667153317,24.733253159586752 z" style="color: rgb(0, 0, 0);" class="" stroke-width="1" id="svg_11"/><path fill="none" stroke="#222222" stroke-linejoin="round" stroke-dashoffset="" fill-rule="nonzero" marker-start="" marker-mid="" marker-end="" d="M287.5539350608726,24.83796659952816 L311.76247706466387,24.83796659952816 L319.2431028250986,1.8399529311191287 L326.7237328391134,24.83796659952816 L350.93227058932575,24.83796659952816 L331.347184542704,39.051358014741055 L338.8281973788804,62.04937168314919 L319.2431028250986,47.83559319219519 L299.6580125248978,62.04937168314919 L307.139027487862,39.051358014741055 L287.5539350608726,24.83796659952816 z" style="color: rgb(0, 0, 0);" class="" stroke-width="1" id="svg_12"/><path fill="none" stroke="#222222" stroke-linejoin="round" stroke-dashoffset="" fill-rule="nonzero" marker-start="" marker-mid="" marker-end="" d="M74.25550676382979,24.62853906399424 L98.46404876762104,24.62853906399424 L105.94467452805577,1.6305253955852237 L113.42530454207056,24.62853906399424 L137.6338422922829,24.62853906399424 L118.04875624566117,38.84193047920714 L125.52976908183757,61.839944147615284 L105.94467452805577,47.626165656661286 L86.35958422785495,61.839944147615284 L93.84059919081918,38.84193047920714 L74.25550676382979,24.62853906399424 z" style="color: rgb(0, 0, 0);" class="" stroke-width="1" id="svg_2"/></g><defs><marker id="Tail" refX="0" refY="0" orient="auto" inkscape:stockid="Tail" overflow="visible">
            <g stroke="#000" stroke-width=".8" stroke-linecap="round" fill="none" style="fill: rgb(34, 34, 34); stroke: rgb(34, 34, 34); stroke-dasharray: none;" id="svg_3">
                <path d="M4.566 4.75l-5.218-4.75" id="svg_4"/>
                <path d="M1.544 4.75l-5.218-4.75" id="svg_5"/>
                <path d="M-1.566 4.75l-5.218-4.75" id="svg_6"/>
                <path d="M4.566-5.013l-5.218 4.749" id="svg_7"/>
                <path d="M1.544-5.013l-5.218 4.749" id="svg_8"/>
                <path d="M-1.566-5.013l-5.218 4.749" id="svg_9"/>
            </g>
        </marker></defs></svg>